<svg width="24" height="24" viewBox="0 0 24 24" fill="none" xmlns="http://www.w3.org/2000/svg">
<rect width="24" height="24" fill="#0A66C2"/>
<path d="M3.97372 21V7.90909H5.98509V21H3.97372ZM4.99645 5.72727C4.6044 5.72727 4.26634 5.59375 3.98224 5.3267C3.70384 5.05966 3.56463 4.73864 3.56463 4.36364C3.56463 3.98864 3.70384 3.66761 3.98224 3.40057C4.26634 3.13352 4.6044 3 4.99645 3C5.38849 3 5.72372 3.13352 6.00213 3.40057C6.28622 3.66761 6.42827 3.98864 6.42827 4.36364C6.42827 4.73864 6.28622 5.05966 6.00213 5.3267C5.72372 5.59375 5.38849 5.72727 4.99645 5.72727ZM11.6804 13.125V21H9.66903V7.90909H11.6122V9.95455H11.7827C12.0895 9.28977 12.5554 8.75568 13.1804 8.35227C13.8054 7.94318 14.6122 7.73864 15.6009 7.73864C16.4872 7.73864 17.2628 7.92045 17.9276 8.28409C18.5923 8.64205 19.1094 9.1875 19.4787 9.92045C19.848 10.6477 20.0327 11.5682 20.0327 12.6818V21H18.0213V12.8182C18.0213 11.7898 17.7543 10.9886 17.2202 10.4148C16.6861 9.83523 15.9531 9.54545 15.0213 9.54545C14.3793 9.54545 13.8054 9.68466 13.2997 9.96307C12.7997 10.2415 12.4048 10.6477 12.1151 11.1818C11.8253 11.7159 11.6804 12.3636 11.6804 13.125Z" fill="white"/>
</svg>
