<svg width="42" height="44" viewBox="0 0 42 44" fill="none" xmlns="http://www.w3.org/2000/svg">
<path d="M2.28354 8.68496C8.13274 3.99222 36.5014 4.99785 40.3034 8.68496C41.4732 12.7074 41.7657 39.8582 40.3034 43.5453C37.0863 44.551 4.62322 43.5453 2.28354 43.5453C1.1137 40.5286 0.821236 13.3778 2.28354 8.68496Z" fill="black"/>
<rect x="6.96289" y="15.3889" width="7.01905" height="4.02235" rx="2.01117" fill="white"/>
<rect x="28.605" y="15.3889" width="7.01905" height="4.02235" rx="2.01117" fill="white"/>
<rect x="6.96289" y="24.1041" width="7.01905" height="0.670392" fill="#38F356"/>
<rect x="6.96289" y="24.1041" width="7.01905" height="0.670392" fill="#38F356"/>
<rect x="6.96289" y="24.1041" width="7.01905" height="0.670392" fill="#38F356"/>
<rect x="6.96289" y="24.1041" width="7.01905" height="0.670392" fill="#38F356"/>
<rect x="6.96289" y="24.1041" width="7.01905" height="0.670392" fill="#38F356"/>
<rect x="6.96289" y="24.1041" width="7.01905" height="0.670392" fill="#38F356"/>
<rect x="6.96289" y="26.1152" width="7.01905" height="0.670392" fill="#38F356"/>
<rect x="6.96289" y="26.1152" width="7.01905" height="0.670392" fill="#38F356"/>
<rect x="6.96289" y="26.1152" width="7.01905" height="0.670392" fill="#38F356"/>
<rect x="6.96289" y="26.1152" width="7.01905" height="0.670392" fill="#38F356"/>
<rect x="6.96289" y="26.1152" width="7.01905" height="0.670392" fill="#38F356"/>
<rect x="6.96289" y="26.1152" width="7.01905" height="0.670392" fill="#38F356"/>
<rect x="6.96289" y="28.1264" width="7.01905" height="0.670392" fill="#38F356"/>
<rect x="6.96289" y="28.1264" width="7.01905" height="0.670392" fill="#38F356"/>
<rect x="6.96289" y="28.1264" width="7.01905" height="0.670392" fill="#38F356"/>
<rect x="6.96289" y="28.1264" width="7.01905" height="0.670392" fill="#38F356"/>
<rect x="6.96289" y="28.1264" width="7.01905" height="0.670392" fill="#38F356"/>
<rect x="6.96289" y="28.1264" width="7.01905" height="0.670392" fill="#38F356"/>
<rect x="6.96289" y="30.1376" width="7.01905" height="0.670392" fill="#38F356"/>
<rect x="6.96289" y="30.1376" width="7.01905" height="0.670392" fill="#38F356"/>
<rect x="6.96289" y="30.1376" width="7.01905" height="0.670392" fill="#38F356"/>
<rect x="6.96289" y="30.1376" width="7.01905" height="0.670392" fill="#38F356"/>
<rect x="6.96289" y="30.1376" width="7.01905" height="0.670392" fill="#38F356"/>
<rect x="6.96289" y="30.1376" width="7.01905" height="0.670392" fill="#38F356"/>
<rect x="6.96289" y="32.1488" width="7.01905" height="0.670392" fill="#38F356"/>
<rect x="6.96289" y="32.1488" width="7.01905" height="0.670392" fill="#38F356"/>
<rect x="6.96289" y="32.1488" width="7.01905" height="0.670392" fill="#38F356"/>
<rect x="6.96289" y="32.1488" width="7.01905" height="0.670392" fill="#38F356"/>
<rect x="6.96289" y="32.1488" width="7.01905" height="0.670392" fill="#38F356"/>
<rect x="6.96289" y="32.1488" width="7.01905" height="0.670392" fill="#38F356"/>
<rect x="6.96289" y="34.1599" width="7.01905" height="0.670392" fill="#38F356"/>
<rect x="6.96289" y="34.1599" width="7.01905" height="0.670392" fill="#38F356"/>
<rect x="6.96289" y="34.1599" width="7.01905" height="0.670392" fill="#38F356"/>
<rect x="6.96289" y="34.1599" width="7.01905" height="0.670392" fill="#38F356"/>
<rect x="6.96289" y="34.1599" width="7.01905" height="0.670392" fill="#38F356"/>
<rect x="6.96289" y="34.1599" width="7.01905" height="0.670392" fill="#38F356"/>
<rect x="6.96289" y="36.1711" width="7.01905" height="0.670392" fill="#38F356"/>
<rect x="6.96289" y="36.1711" width="7.01905" height="0.670392" fill="#38F356"/>
<rect x="6.96289" y="36.1711" width="7.01905" height="0.670392" fill="#38F356"/>
<rect x="6.96289" y="36.1711" width="7.01905" height="0.670392" fill="#38F356"/>
<rect x="6.96289" y="36.1711" width="7.01905" height="0.670392" fill="#38F356"/>
<rect x="6.96289" y="36.1711" width="7.01905" height="0.670392" fill="#38F356"/>
<rect x="6.96289" y="38.1823" width="7.01905" height="0.670392" fill="#38F356"/>
<rect x="6.96289" y="38.1823" width="7.01905" height="0.670392" fill="#38F356"/>
<rect x="6.96289" y="38.1823" width="7.01905" height="0.670392" fill="#38F356"/>
<rect x="6.96289" y="38.1823" width="7.01905" height="0.670392" fill="#38F356"/>
<rect x="6.96289" y="38.1823" width="7.01905" height="0.670392" fill="#38F356"/>
<rect x="6.96289" y="38.1823" width="7.01905" height="0.670392" fill="#38F356"/>
<rect x="28.605" y="24.1041" width="7.01905" height="0.670392" fill="#38F356"/>
<rect x="28.605" y="24.1041" width="7.01905" height="0.670392" fill="#38F356"/>
<rect x="28.605" y="24.1041" width="7.01905" height="0.670392" fill="#38F356"/>
<rect x="28.605" y="24.1041" width="7.01905" height="0.670392" fill="#38F356"/>
<rect x="28.605" y="24.1041" width="7.01905" height="0.670392" fill="#38F356"/>
<rect x="28.605" y="24.1041" width="7.01905" height="0.670392" fill="#38F356"/>
<rect x="28.605" y="26.1152" width="7.01905" height="0.670392" fill="#38F356"/>
<rect x="28.605" y="26.1152" width="7.01905" height="0.670392" fill="#38F356"/>
<rect x="28.605" y="26.1152" width="7.01905" height="0.670392" fill="#38F356"/>
<rect x="28.605" y="26.1152" width="7.01905" height="0.670392" fill="#38F356"/>
<rect x="28.605" y="26.1152" width="7.01905" height="0.670392" fill="#38F356"/>
<rect x="28.605" y="26.1152" width="7.01905" height="0.670392" fill="#38F356"/>
<rect x="28.605" y="28.1264" width="7.01905" height="0.670392" fill="#38F356"/>
<rect x="28.605" y="28.1264" width="7.01905" height="0.670392" fill="#38F356"/>
<rect x="28.605" y="28.1264" width="7.01905" height="0.670392" fill="#38F356"/>
<rect x="28.605" y="28.1264" width="7.01905" height="0.670392" fill="#38F356"/>
<rect x="28.605" y="28.1264" width="7.01905" height="0.670392" fill="#38F356"/>
<rect x="28.605" y="28.1264" width="7.01905" height="0.670392" fill="#38F356"/>
<rect x="28.605" y="30.1376" width="7.01905" height="0.670392" fill="#38F356"/>
<rect x="28.605" y="30.1376" width="7.01905" height="0.670392" fill="#38F356"/>
<rect x="28.605" y="30.1376" width="7.01905" height="0.670392" fill="#38F356"/>
<rect x="28.605" y="30.1376" width="7.01905" height="0.670392" fill="#38F356"/>
<rect x="28.605" y="30.1376" width="7.01905" height="0.670392" fill="#38F356"/>
<rect x="28.605" y="30.1376" width="7.01905" height="0.670392" fill="#38F356"/>
<rect x="28.605" y="32.1488" width="7.01905" height="0.670392" fill="#38F356"/>
<rect x="28.605" y="32.1488" width="7.01905" height="0.670392" fill="#38F356"/>
<rect x="28.605" y="32.1488" width="7.01905" height="0.670392" fill="#38F356"/>
<rect x="28.605" y="32.1488" width="7.01905" height="0.670392" fill="#38F356"/>
<rect x="28.605" y="32.1488" width="7.01905" height="0.670392" fill="#38F356"/>
<rect x="28.605" y="32.1488" width="7.01905" height="0.670392" fill="#38F356"/>
<rect x="28.605" y="34.1599" width="7.01905" height="0.670392" fill="#38F356"/>
<rect x="28.605" y="34.1599" width="7.01905" height="0.670392" fill="#38F356"/>
<rect x="28.605" y="34.1599" width="7.01905" height="0.670392" fill="#38F356"/>
<rect x="28.605" y="34.1599" width="7.01905" height="0.670392" fill="#38F356"/>
<rect x="28.605" y="34.1599" width="7.01905" height="0.670392" fill="#38F356"/>
<rect x="28.605" y="34.1599" width="7.01905" height="0.670392" fill="#38F356"/>
<rect x="28.605" y="36.1711" width="7.01905" height="0.670392" fill="#38F356"/>
<rect x="28.605" y="36.1711" width="7.01905" height="0.670392" fill="#38F356"/>
<rect x="28.605" y="36.1711" width="7.01905" height="0.670392" fill="#38F356"/>
<rect x="28.605" y="36.1711" width="7.01905" height="0.670392" fill="#38F356"/>
<rect x="28.605" y="36.1711" width="7.01905" height="0.670392" fill="#38F356"/>
<rect x="28.605" y="36.1711" width="7.01905" height="0.670392" fill="#38F356"/>
<rect x="28.605" y="38.1823" width="7.01905" height="0.670392" fill="#38F356"/>
<rect x="28.605" y="38.1823" width="7.01905" height="0.670392" fill="#38F356"/>
<rect x="28.605" y="38.1823" width="7.01905" height="0.670392" fill="#38F356"/>
<rect x="28.605" y="38.1823" width="7.01905" height="0.670392" fill="#38F356"/>
<rect x="28.605" y="38.1823" width="7.01905" height="0.670392" fill="#38F356"/>
<rect x="28.605" y="38.1823" width="7.01905" height="0.670392" fill="#38F356"/>
<path d="M6.37799 6.00345C6.37799 6.00345 9.73803 9.22133 11.2653 9.68103C12.1817 10.1407 27.7601 10.1407 28.9819 9.68103C30.5092 9.22133 33.8693 6.00345 33.8693 6.00345" stroke="white"/>
<path d="M14.2935 4.99229C14.2935 4.99229 15.8824 7.39229 16.6046 7.73515C17.0379 8.07801 24.4046 8.07801 24.9823 7.73515C25.7046 7.39229 27.2935 4.99229 27.2935 4.99229M1.79347 1.49198C7.64267 0.759903 36.0113 0.916783 39.8133 1.49198C40.9831 2.11948 41.7558 8.41678 40.2935 8.99197C34.2935 4.49197 7.79347 3.99197 2.29347 8.99197C1.12362 8.52136 0.331166 2.22407 1.79347 1.49198Z" stroke="white"/>
<path d="M4.79346 7.49197C4.79346 7.49197 8.20457 10.992 9.98235 11.5634C11.049 12.1348 29.1823 12.1348 30.6046 11.5634C32.3823 10.992 36.2935 6.99197 36.2935 6.99197" stroke="white"/>
<rect x="13.2935" y="3.99197" width="3" height="2" fill="white"/>
<rect x="25.2935" y="3.99197" width="3" height="2" fill="white"/>
</svg>
